<svg width="15" height="17" viewBox="0 0 15 17" fill="none" xmlns="http://www.w3.org/2000/svg">
<path d="M0.408847 1.10265L0.410133 1.10214C0.333352 1.31248 0.319982 1.54001 0.369692 1.75802L0.368406 1.75852L3.08865 14.8751L3.09089 14.8846C3.30395 15.779 4.42116 16.0814 5.05712 15.4189L5.05763 15.4201L7.11483 13.3319L8.27034 14.8994C8.71016 15.4961 9.25835 15.8752 9.87987 15.9694C10.5016 16.0635 11.1379 15.8643 11.7348 15.4244C12.3316 14.9845 12.7099 14.4361 12.8039 13.8145C12.8979 13.1929 12.6983 12.5573 12.2585 11.9605L11.0983 10.3866L13.745 9.01749L13.7445 9.0162C14.5651 8.60443 14.6058 7.44832 13.8146 6.98037L13.8061 6.97557L2.08211 0.495316L2.08082 0.49582C1.93643 0.412359 1.77638 0.359253 1.61027 0.343467C1.44069 0.327362 1.2697 0.349579 1.10933 0.406969C0.948921 0.464428 0.80239 0.556042 0.681553 0.676164C0.560675 0.796387 0.46721 0.942463 0.408847 1.10265Z" stroke="white" stroke-width="0.677419"/>
</svg>
